<svg width="400" height="400" viewBox="0 0 400 400" fill="none" xmlns="http://www.w3.org/2000/svg">
<g filter="url(#filter0_i_862_2633)">
<path d="M400 200C400 310.457 310.457 400 200 400C89.5431 400 0 310.457 0 200C0 89.5431 89.5431 0 200 0C310.457 0 400 89.5431 400 200Z" fill="url(#paint0_linear_862_2633)"/>
</g>
<g filter="url(#filter1_d_862_2633)">
<path d="M200.663 334L132.473 139.453L107.167 217.719L148.242 248.802L155.567 281.345L81 227.201L134.656 66L200.663 261.578L265.953 68.8648L318 231.613L243.577 285.356L251.648 250.263L291.229 220.268L264.832 142.747L200.663 334Z" fill="white"/>
</g>
<defs>
<filter id="filter0_i_862_2633" x="0" y="-2" width="400" height="402" filterUnits="userSpaceOnUse" color-interpolation-filters="sRGB">
<feFlood flood-opacity="0" result="BackgroundImageFix"/>
<feBlend mode="normal" in="SourceGraphic" in2="BackgroundImageFix" result="shape"/>
<feColorMatrix in="SourceAlpha" type="matrix" values="0 0 0 0 0 0 0 0 0 0 0 0 0 0 0 0 0 0 127 0" result="hardAlpha"/>
<feOffset dy="-2"/>
<feGaussianBlur stdDeviation="7"/>
<feComposite in2="hardAlpha" operator="arithmetic" k2="-1" k3="1"/>
<feColorMatrix type="matrix" values="0 0 0 0 0 0 0 0 0 0 0 0 0 0 0 0 0 0 0.25 0"/>
<feBlend mode="normal" in2="shape" result="effect1_innerShadow_862_2633"/>
</filter>
<filter id="filter1_d_862_2633" x="73" y="62" width="253" height="284" filterUnits="userSpaceOnUse" color-interpolation-filters="sRGB">
<feFlood flood-opacity="0" result="BackgroundImageFix"/>
<feColorMatrix in="SourceAlpha" type="matrix" values="0 0 0 0 0 0 0 0 0 0 0 0 0 0 0 0 0 0 127 0" result="hardAlpha"/>
<feOffset dy="4"/>
<feGaussianBlur stdDeviation="4"/>
<feComposite in2="hardAlpha" operator="out"/>
<feColorMatrix type="matrix" values="0 0 0 0 0 0 0 0 0 0 0 0 0 0 0 0 0 0 0.25 0"/>
<feBlend mode="normal" in2="BackgroundImageFix" result="effect1_dropShadow_862_2633"/>
<feBlend mode="normal" in="SourceGraphic" in2="effect1_dropShadow_862_2633" result="shape"/>
</filter>
<linearGradient id="paint0_linear_862_2633" x1="200" y1="0" x2="200" y2="400" gradientUnits="userSpaceOnUse">
<stop stop-color="#4C91F9"/>
<stop offset="1" stop-color="#2655FF"/>
</linearGradient>
</defs>
</svg>
